<?xml version="1.0" encoding="utf-8"?>
<!-- Generator: Adobe Illustrator 26.0.2, SVG Export Plug-In . SVG Version: 6.00 Build 0)  -->
<svg version="1.1" id="Layer_1" xmlns="http://www.w3.org/2000/svg" xmlns:xlink="http://www.w3.org/1999/xlink" x="0px" y="0px"
	 viewBox="0 0 238 158" style="enable-background:new 0 0 238 158;" xml:space="preserve">
<style type="text/css">
	.st0{fill:#FFFFFF;}
	.st1{fill:#76CEDB;}
</style>
<path class="st0" d="M62.09,90.8h-0.05c-5.91,0-11.46-2.29-15.65-6.46c-4.2-4.18-6.52-9.75-6.54-15.67
	c-0.01-5.93,2.28-11.5,6.46-15.7c4.18-4.21,9.75-6.52,15.68-6.54h0.05c5.9,0,11.46,2.3,15.65,6.46c4.2,4.18,6.52,9.75,6.53,15.68
	c0.02,5.93-2.28,11.5-6.46,15.7C73.58,88.46,68.02,90.79,62.09,90.8 M120.23,68.47c-0.04-15.54-6.12-30.14-17.13-41.1
	C92.08,16.41,77.4,10.39,61.91,10.42c-15.54,0.03-30.13,6.12-41.1,17.13C9.84,38.57,3.82,53.19,3.86,68.74
	c0.03,15.54,6.12,30.14,17.13,41.1c10.98,10.94,25.55,16.95,41.05,16.95h0.14c4.12-0.01,8.16-0.45,12.1-1.29
	c10.78,13.59,27.42,22.06,45.59,22.09v-36c-5.18-0.01-10.02-1.83-13.85-4.9C115.23,96.08,120.26,82.67,120.23,68.47"/>
<path class="st0" d="M181.97,126.52c-28.77,0-52.18-23.4-52.18-52.17V57.21h36v17.14c0,8.91,7.26,16.18,16.18,16.18h0
	c4.32,0,8.39-1.68,11.45-4.74c3.05-3.06,4.73-7.12,4.73-11.45V57.21h36v17.12c0,13.94-5.43,27.04-15.28,36.9
	c-9.85,9.86-22.96,15.29-36.89,15.29H181.97"/>
<rect x="129.84" y="12.32" class="st1" width="104.25" height="34.08"/>
</svg>
